    <svg width="40" height="40" id="triplebyte-logo-image">
    <path d="M9 13.664l.085-.143.765-.417 4.65-2.693L19.92 7.3h.16l5.42 3.112 4.646 2.69.77.419.084.143v12.515l-.082.141-5.418 3.111-4.653 2.694-.77.42h-.155l-.773-.422-4.649-2.691-5.418-3.112L9 26.18V13.663zm6.455.476l4.498-2.61h.163l6.643 3.848-.246.14-1.47.84-.385.21-.16-.002L20 13.956l-4.498 2.61-.16.002-.387-.211-1.469-.84-1.739-1.003-.604.33v.684l1.736 1.001 1.465.838.385.21.085.142v5.185l4.498 2.61.081.14v2.38l-6.64-3.811-.082-.141v-5.183l-.303-.165-1.225-.7v7.003l8.169 4.707.655.374.686-.374 8.239-4.708v-7.035l-1.493.86v5.186l-.08.14-6.643 3.847v-2.38l.081-.14 4.5-2.61V17.72l.084-.143.382-.208 1.467-.839 1.737-1.001v-.684l-.688-.375-8.17-4.708-6.105 3.519 1.491.86z" fill="black" fill-rule="nonzero"></path>
    </svg>